<?xml version="1.0" standalone="no"?>
<!DOCTYPE svg PUBLIC "-//W3C//DTD SVG 20010904//EN"
 "http://www.w3.org/TR/2001/REC-SVG-20010904/DTD/svg10.dtd">
<svg version="1.0" xmlns="http://www.w3.org/2000/svg"
 width="512.000000pt" height="512.000000pt" viewBox="0 0 512.000000 512.000000"
 preserveAspectRatio="xMidYMid meet">

<g transform="translate(0.000000,512.000000) scale(0.100000,-0.100000)"
fill="#000000" stroke="none">
<path d="M4840 4404 c-23 -10 -589 -568 -1643 -1622 l-1607 -1607 -638 637
c-350 350 -653 644 -672 653 -42 21 -127 22 -166 2 -62 -32 -114 -113 -114
-174 0 -89 -19 -67 743 -831 485 -485 735 -729 763 -742 51 -25 117 -25 169
-1 57 27 3408 3381 3430 3433 29 72 9 164 -46 215 -56 51 -150 67 -219 37z"/>
</g>
</svg>
