<?xml version="1.0" standalone="no"?>
<!DOCTYPE svg PUBLIC "-//W3C//DTD SVG 20010904//EN"
 "http://www.w3.org/TR/2001/REC-SVG-20010904/DTD/svg10.dtd">
<svg version="1.0" xmlns="http://www.w3.org/2000/svg"
 width="128.000000pt" height="128.000000pt" viewBox="0 0 128.000000 128.000000"
 preserveAspectRatio="xMidYMid meet">

<g transform="translate(0.000000,128.000000) scale(0.100000,-0.100000)"
fill="#000000" stroke="none">
<path d="M290 1179 c-90 -14 -167 -61 -219 -135 -45 -62 -62 -118 -62 -202 0
-126 17 -151 315 -457 142 -146 271 -272 287 -281 25 -13 33 -13 57 0 42 22
546 546 570 593 12 22 25 66 30 97 36 227 -157 420 -384 384 -75 -12 -129 -40
-191 -101 l-53 -51 -52 51 c-85 84 -189 119 -298 102z m165 -144 c22 -13 67
-51 100 -84 40 -41 67 -61 83 -61 16 0 51 25 104 75 64 60 90 78 135 91 78 23
151 5 211 -50 70 -63 89 -185 40 -266 -15 -25 -130 -148 -257 -275 l-231 -230
-231 230 c-127 127 -241 248 -254 270 -45 75 -42 162 7 235 66 96 193 124 293
65z"/>
</g>
</svg>
