<?xml version="1.0" standalone="no"?>
<!DOCTYPE svg PUBLIC "-//W3C//DTD SVG 20010904//EN"
 "http://www.w3.org/TR/2001/REC-SVG-20010904/DTD/svg10.dtd">
<svg version="1.0" xmlns="http://www.w3.org/2000/svg"
 width="128.000000pt" height="128.000000pt" viewBox="0 0 128.000000 128.000000"
 preserveAspectRatio="xMidYMid meet">

<g transform="translate(0.000000,128.000000) scale(0.100000,-0.100000)"
fill="#000000" stroke="none">
<path d="M277 1113 c-59 -20 -128 -80 -165 -141 -24 -42 -27 -57 -27 -137 0
-75 4 -98 23 -135 27 -52 508 -540 532 -540 9 0 127 111 262 247 262 263 283
291 295 392 20 170 -122 326 -296 325 -84 -1 -143 -26 -211 -90 l-51 -47 -47
45 c-26 25 -67 56 -90 68 -59 29 -162 35 -225 13z m208 -52 c22 -10 66 -41 98
-70 l57 -53 58 53 c74 68 130 93 207 92 98 -1 171 -44 223 -132 36 -61 39
-174 5 -236 -12 -22 -128 -146 -257 -275 l-236 -235 -236 235 c-129 129 -245
253 -257 275 -34 62 -31 175 5 236 72 122 205 166 333 110z"/>
</g>
</svg>
